<svg xmlns="http://www.w3.org/2000/svg" viewBox="0 0 697.21 167.58"><defs><style>.a{fill:#fff;}.b{fill:#3fbeac;}</style></defs><title>kinobi-logo</title><path class="a" d="M253.38,92.87,282,62.06a8.17,8.17,0,0,0,1.66-6.2,7.85,7.85,0,0,0-3.15-5.27,8.19,8.19,0,0,0-6.19-1.66,7.88,7.88,0,0,0-5.23,3.1L235.61,87.82V56.41a8.21,8.21,0,1,0-16.43,0V136.1a8.21,8.21,0,1,0,16.43,0V111.49l6.33-6.63,27.82,36.54a8.2,8.2,0,0,0,6.31,3,8.41,8.41,0,0,0,5.12-1.81l0,0a8.26,8.26,0,0,0,3.06-5.69,7.92,7.92,0,0,0-1.86-5.87Z" transform="translate(-9.64 -12.26)"/><path class="a" d="M323.6,48.13a8.22,8.22,0,0,0-8.28,8.15v79.55a8.21,8.21,0,1,0,16.43,0V56.28A8.16,8.16,0,0,0,323.6,48.13Z" transform="translate(-9.64 -12.26)"/><path class="a" d="M434.48,56a8.21,8.21,0,1,0-16.43,0v54.65l-39.81-59.1a8.1,8.1,0,0,0-5.16-3.66,8.21,8.21,0,0,0-6.29,1.16,8.46,8.46,0,0,0-3.8,8V136.1a8.21,8.21,0,0,0,16.43,0V83l40,57.44a8.37,8.37,0,0,0,6.94,3.78,7.56,7.56,0,0,0,4.52-1.36,8.08,8.08,0,0,0,3.62-8Z" transform="translate(-9.64 -12.26)"/><path class="a" d="M512.08,48.53a47.32,47.32,0,0,0-47.27,47.27c0,26.5,21.2,48.06,47.27,48.06s47.27-21.56,47.27-48.06A47.32,47.32,0,0,0,512.08,48.53Zm31.23,47.27c0,17.59-14,31.89-31.23,31.89S481,113.38,481,95.79a31.17,31.17,0,0,1,62.34,0Z" transform="translate(-9.64 -12.26)"/><path class="a" d="M646.54,92.63a28.77,28.77,0,0,0,5-15.8c0-14.85-12-27.16-27.38-28H598.7a8.46,8.46,0,0,0-8.37,8.28v78.76a8.22,8.22,0,0,0,8.41,8.28h35A28,28,0,0,0,660,116.49v0A28.35,28.35,0,0,0,646.54,92.63Zm-23.44-4.2H606.89V65.35H623.1a11.71,11.71,0,0,1,12,11.32A11.91,11.91,0,0,1,623.1,88.44ZM606.89,105H632c6,.11,11.51,5.58,11.51,11.48s-5.06,11.08-10.82,11.08H606.89Z" transform="translate(-9.64 -12.26)"/><path class="a" d="M698.7,48.13a8.22,8.22,0,0,0-8.28,8.15v79.55a8.21,8.21,0,1,0,16.43,0V56.28A8.16,8.16,0,0,0,698.7,48.13Z" transform="translate(-9.64 -12.26)"/><path class="b" d="M36.66,12.26A27,27,0,0,0,28,64.85V166a8.71,8.71,0,0,0,17.43,0V64.82a27,27,0,0,0-8.76-52.56Zm13.07,27A13.07,13.07,0,1,1,36.66,26.2,13.07,13.07,0,0,1,49.73,39.27Z" transform="translate(-9.64 -12.26)"/><path class="b" d="M148.46,133.72a27,27,0,0,0-31-5.16L82.23,93.3l61.09-61.09A8.71,8.71,0,0,0,131,19.9l-3.5,3.5h0L63.91,87l-.17.16a8.71,8.71,0,0,0,0,12.32l41.41,41.41a27,27,0,1,0,43.32-7.14Zm-9.86,28.34a13.07,13.07,0,1,1,0-18.48A13.07,13.07,0,0,1,138.6,162.07Z" transform="translate(-9.64 -12.26)"/></svg>