<svg id="Layer_1" data-name="Layer 1" xmlns="http://www.w3.org/2000/svg" viewBox="0 0 697.46 207.47"><defs><style>.cls-1{fill:#fff;}.cls-2{fill:#00a7e0;}</style></defs><title>Kinobi pro logo - CMYK - rev</title><path class="cls-1" d="M255.8,96.59l28.63-30.81a8.21,8.21,0,0,0,1.66-6.2,7.89,7.89,0,0,0-3.15-5.27,8.18,8.18,0,0,0-6.2-1.65,7.88,7.88,0,0,0-5.23,3.1L238,91.54V60.13a8.22,8.22,0,1,0-16.43,0v79.69a8.22,8.22,0,1,0,16.43,0V115.21l6.32-6.64,27.82,36.55a8.22,8.22,0,0,0,6.31,3,8.37,8.37,0,0,0,5.12-1.81l0,0a8.25,8.25,0,0,0,3.06-5.69,7.91,7.91,0,0,0-1.86-5.87Z" transform="translate(-12.06 -15.98)"/><path class="cls-1" d="M326,51.85A8.23,8.23,0,0,0,317.74,60v79.55a8.22,8.22,0,1,0,16.43,0V60A8.16,8.16,0,0,0,326,51.85Z" transform="translate(-12.06 -15.98)"/><path class="cls-1" d="M436.9,59.74a8.22,8.22,0,1,0-16.43,0v54.64l-39.8-59.1a8.1,8.1,0,0,0-5.16-3.65,8.23,8.23,0,0,0-6.29,1.15,8.48,8.48,0,0,0-3.8,8v79.08a8.22,8.22,0,0,0,16.43,0V86.74l40,57.44a8.37,8.37,0,0,0,6.94,3.79,7.56,7.56,0,0,0,4.53-1.36,8.07,8.07,0,0,0,3.62-8Z" transform="translate(-12.06 -15.98)"/><path class="cls-1" d="M514.49,52.25a47.31,47.31,0,0,0-47.26,47.26c0,26.5,21.2,48.06,47.26,48.06S561.76,126,561.76,99.51A47.31,47.31,0,0,0,514.49,52.25Zm31.24,47.26c0,17.59-14,31.9-31.24,31.9s-31.1-14.31-31.1-31.9a31.17,31.17,0,0,1,62.34,0Z" transform="translate(-12.06 -15.98)"/><path class="cls-1" d="M649,96.35a28.73,28.73,0,0,0,5-15.8c0-14.85-12-27.16-27.37-28H601.12a8.46,8.46,0,0,0-8.38,8.28v78.76a8.22,8.22,0,0,0,8.42,8.28h35a28,28,0,0,0,26.19-27.62v0A28.37,28.37,0,0,0,649,96.35Zm-23.44-4.19H609.3V69.07h16.22a11.72,11.72,0,0,1,12,11.32A11.91,11.91,0,0,1,625.52,92.16ZM609.3,108.72h25.15c6,.11,11.51,5.58,11.51,11.47s-5.06,11.09-10.82,11.09H609.3Z" transform="translate(-12.06 -15.98)"/><path class="cls-1" d="M701.12,51.85A8.23,8.23,0,0,0,692.84,60v79.55a8.22,8.22,0,1,0,16.43,0V60A8.16,8.16,0,0,0,701.12,51.85Z" transform="translate(-12.06 -15.98)"/><path class="cls-2" d="M39.07,16A27,27,0,0,0,30.4,68.57v101.2a8.72,8.72,0,1,0,17.43,0V68.54A27,27,0,0,0,39.07,16ZM52.14,43A13.07,13.07,0,1,1,39.07,29.92,13.07,13.07,0,0,1,52.14,43Z" transform="translate(-12.06 -15.98)"/><path class="cls-2" d="M150.88,137.44a27,27,0,0,0-31-5.16L84.64,97l61.09-61.08a8.71,8.71,0,1,0-12.32-12.32l-3.5,3.5h0L66.33,90.69l-.18.17a8.72,8.72,0,0,0,0,12.32l41.41,41.4a27,27,0,1,0,43.32-7.14ZM141,165.79a13.07,13.07,0,1,1,0-18.49A13.07,13.07,0,0,1,141,165.79Z" transform="translate(-12.06 -15.98)"/><path class="cls-2" d="M605.05,181.35H592.48a3.67,3.67,0,0,0-3.7,3.7v34.64a3.66,3.66,0,0,0,3.7,3.69,3.7,3.7,0,0,0,3.7-3.69V206.18c8,0,9,0,9.26-.07,6.79-.77,11.71-6,11.71-12.43A12.56,12.56,0,0,0,605.05,181.35Zm4.76,12.32a5.18,5.18,0,0,1-5.22,5.12h-8.41v-10h8.41A5.09,5.09,0,0,1,609.81,193.67Z" transform="translate(-12.06 -15.98)"/><path class="cls-2" d="M656.07,193.73a12.54,12.54,0,0,0-12.33-12.26H631.46a3.78,3.78,0,0,0-3.76,3.7V219.8a3.63,3.63,0,0,0,3.7,3.64,3.67,3.67,0,0,0,3.7-3.64V206.3h4.66l9.39,15.39a3.81,3.81,0,0,0,3.16,1.75,3.58,3.58,0,0,0,1.93-.53,3.74,3.74,0,0,0,1.25-5.09l-7.61-12.4C652.88,203.25,656.07,198.75,656.07,193.73Zm-7.34.07a5.18,5.18,0,0,1-5.22,5.1H635.1v-10h8.41A5.1,5.1,0,0,1,648.73,193.8Z" transform="translate(-12.06 -15.98)"/><path class="cls-2" d="M688.68,181.35a21,21,0,1,0,20.85,20.84A20.87,20.87,0,0,0,688.68,181.35Zm0,34.81a13.81,13.81,0,0,1-13.62-14,13.65,13.65,0,0,1,27.3,0A13.83,13.83,0,0,1,688.68,216.16Z" transform="translate(-12.06 -15.98)"/></svg>