<svg id="Layer_1" data-name="Layer 1" xmlns="http://www.w3.org/2000/svg" viewBox="0 0 697.33 207.38"><defs><style>.cls-1{fill:#fff;}.cls-2{fill:#c0d330;}</style></defs><title>Kinobi open source logo - CMYK - rev</title><path class="cls-1" d="M255.81,96.48l28.63-30.82a8.12,8.12,0,0,0,1.66-6.19A7.81,7.81,0,0,0,283,54.2a8.2,8.2,0,0,0-6.19-1.66,7.85,7.85,0,0,0-5.23,3.1L238,91.42V60a8.22,8.22,0,1,0-16.43,0V139.7a8.22,8.22,0,1,0,16.43,0V115.09l6.33-6.63L272.19,145a8.17,8.17,0,0,0,6.3,3,8.45,8.45,0,0,0,5.13-1.8l0,0a8.25,8.25,0,0,0,3.06-5.69,7.94,7.94,0,0,0-1.86-5.87Z" transform="translate(-12.08 -15.86)"/><path class="cls-1" d="M326,51.74a8.22,8.22,0,0,0-8.28,8.15v79.55a8.22,8.22,0,1,0,16.43,0V59.89A8.16,8.16,0,0,0,326,51.74Z" transform="translate(-12.08 -15.86)"/><path class="cls-1" d="M436.92,59.62a8.22,8.22,0,1,0-16.43,0v54.65l-39.81-59.1a8.12,8.12,0,0,0-5.15-3.66,8.22,8.22,0,0,0-6.29,1.16,8.44,8.44,0,0,0-3.8,8V139.7a8.21,8.21,0,0,0,16.42,0V86.62l40,57.45a8.35,8.35,0,0,0,6.94,3.78,7.52,7.52,0,0,0,4.52-1.36,8.09,8.09,0,0,0,3.63-8Z" transform="translate(-12.08 -15.86)"/><path class="cls-1" d="M514.51,52.13A47.33,47.33,0,0,0,467.24,99.4c0,26.5,21.21,48.06,47.27,48.06s47.27-21.56,47.27-48.06A47.33,47.33,0,0,0,514.51,52.13ZM545.74,99.4c0,17.59-14,31.89-31.23,31.89s-31.1-14.3-31.1-31.89a31.17,31.17,0,0,1,62.33,0Z" transform="translate(-12.08 -15.86)"/><path class="cls-1" d="M649,96.24a28.86,28.86,0,0,0,5-15.81c0-14.84-12-27.16-27.38-28H601.13a8.45,8.45,0,0,0-8.37,8.28v78.76a8.23,8.23,0,0,0,8.41,8.28h35a28,28,0,0,0,26.2-27.62h0A28.33,28.33,0,0,0,649,96.24ZM625.54,92H609.32V69h16.22a11.7,11.7,0,0,1,12,11.31A11.9,11.9,0,0,1,625.54,92ZM609.32,108.6h25.14c6,.11,11.51,5.58,11.51,11.48s-5.06,11.08-10.82,11.08H609.32Z" transform="translate(-12.08 -15.86)"/><path class="cls-1" d="M701.14,51.74a8.22,8.22,0,0,0-8.28,8.15v79.55a8.21,8.21,0,1,0,16.42,0V59.89A8.15,8.15,0,0,0,701.14,51.74Z" transform="translate(-12.08 -15.86)"/><path class="cls-2" d="M39.09,15.86a27,27,0,0,0-8.67,52.59v101.2a8.72,8.72,0,0,0,17.43,0V68.42a27,27,0,0,0-8.76-52.56Zm13.07,27A13.07,13.07,0,1,1,39.09,29.8,13.07,13.07,0,0,1,52.16,42.87Z" transform="translate(-12.08 -15.86)"/><path class="cls-2" d="M150.89,137.33a27,27,0,0,0-31-5.16L84.66,96.91l61.09-61.09A8.72,8.72,0,0,0,133.42,23.5l-3.5,3.5h0L66.34,90.58l-.17.16a8.72,8.72,0,0,0,0,12.32l41.4,41.41a27,27,0,1,0,43.32-7.14ZM141,165.67a13.07,13.07,0,1,1,0-18.48A13.09,13.09,0,0,1,141,165.67Z" transform="translate(-12.08 -15.86)"/><path class="cls-2" d="M242.39,181a21,21,0,1,0,20.85,20.85A20.88,20.88,0,0,0,242.39,181Zm0,34.82a13.82,13.82,0,0,1-13.63-14,13.66,13.66,0,0,1,27.31,0A13.84,13.84,0,0,1,242.39,215.84Z" transform="translate(-12.08 -15.86)"/><path class="cls-2" d="M292.74,181H280.16a3.67,3.67,0,0,0-3.7,3.7v34.65a3.67,3.67,0,0,0,3.7,3.7,3.7,3.7,0,0,0,3.7-3.7V205.86c8,0,9,0,9.26-.07,6.79-.77,11.72-6,11.72-12.43A12.56,12.56,0,0,0,292.74,181Zm4.75,12.32a5.18,5.18,0,0,1-5.22,5.12h-8.41v-10h8.41A5.09,5.09,0,0,1,297.49,193.34Z" transform="translate(-12.08 -15.86)"/><path class="cls-2" d="M342.21,188.42a3.7,3.7,0,1,0,0-7.4H322a3.67,3.67,0,0,0-3.7,3.7v34.65a3.67,3.67,0,0,0,3.7,3.7h20.22a3.7,3.7,0,1,0,0-7.4H325.69v-9.81H338.1a3.7,3.7,0,0,0,0-7.4H325.69v-10Z" transform="translate(-12.08 -15.86)"/><path class="cls-2" d="M390.87,184.38a3.67,3.67,0,1,0-7.34,0v23.85l-17.41-25.84a3.57,3.57,0,0,0-2.3-1.64,3.68,3.68,0,0,0-2.81.52,3.79,3.79,0,0,0-1.7,3.55V219.6a3.67,3.67,0,0,0,7.34,0V196.44l17.48,25.11a3.72,3.72,0,0,0,3.1,1.69,3.42,3.42,0,0,0,2-.6,3.62,3.62,0,0,0,1.62-3.56Z" transform="translate(-12.08 -15.86)"/><path class="cls-2" d="M430.1,199.38H408.2a3.68,3.68,0,1,0,0,7.35h21.9a3.68,3.68,0,0,0,0-7.35Z" transform="translate(-12.08 -15.86)"/><path class="cls-2" d="M469.3,192.71a3.67,3.67,0,0,0,6.79-1.9,3.31,3.31,0,0,0-.43-1.7,12.14,12.14,0,0,0-3.69-4.49,16.69,16.69,0,0,0-10.47-3.42,13.76,13.76,0,0,0-3.66.37,12.52,12.52,0,0,0-9.56,8.59,11.49,11.49,0,0,0,2.8,11.52c3.09,3.16,6.78,3.62,10,4l.36,0c2.17.27,4,.51,5.33,1.55a4.83,4.83,0,0,1,1.95,3.33c0,.21-.35,4.92-6.23,4.92h-.19a10.52,10.52,0,0,1-5.74-1.58,7.53,7.53,0,0,1-1.9-2,3.54,3.54,0,0,0-3.33-2.23,3.7,3.7,0,0,0-3.7,3.7,3.88,3.88,0,0,0,.57,2,14,14,0,0,0,4,4.43,17.43,17.43,0,0,0,9.82,3,1.67,1.67,0,0,0,.5.06,13.4,13.4,0,0,0,9.71-3.71,13,13,0,0,0,3.83-8.51,12.28,12.28,0,0,0-4.76-9.15c-2.89-2.28-6.1-2.68-8.93-3l-.23,0c-3.13-.36-4.63-.71-5.83-1.91a4,4,0,0,1-1.08-4.19,5.43,5.43,0,0,1,4.09-3.67l0,0a5.89,5.89,0,0,1,1.93-.14h0a10,10,0,0,1,6.17,1.9,5.33,5.33,0,0,1,1.39,1.62v.65Z" transform="translate(-12.08 -15.86)"/><path class="cls-2" d="M509.88,181a21,21,0,1,0,20.85,20.85A20.88,20.88,0,0,0,509.88,181Zm0,34.82a13.81,13.81,0,0,1-13.62-14,13.65,13.65,0,0,1,27.3,0A13.84,13.84,0,0,1,509.88,215.84Z" transform="translate(-12.08 -15.86)"/><path class="cls-2" d="M570.66,181.37a3.68,3.68,0,0,0-3.65,3.7v22.71a8,8,0,1,1-16,0V185.07a3.68,3.68,0,1,0-7.35,0v22.71a15.35,15.35,0,1,0,30.69,0V185.07A3.66,3.66,0,0,0,570.66,181.37Z" transform="translate(-12.08 -15.86)"/><path class="cls-2" d="M616,193.41a12.54,12.54,0,0,0-12.33-12.27H591.34a3.78,3.78,0,0,0-3.76,3.7v34.65a3.63,3.63,0,0,0,3.7,3.64,3.68,3.68,0,0,0,3.7-3.64V206h4.66l9.4,15.4a3.83,3.83,0,0,0,3.16,1.75,3.58,3.58,0,0,0,1.93-.53,3.75,3.75,0,0,0,1.24-5.1l-7.61-12.4C612.77,202.92,616,198.43,616,193.41Zm-7.34.06a5.18,5.18,0,0,1-5.22,5.11H595v-10h8.41A5.1,5.1,0,0,1,608.61,193.47Z" transform="translate(-12.08 -15.86)"/><path class="cls-2" d="M649.74,181a21.08,21.08,0,1,0,0,42.16,20.76,20.76,0,0,0,17.63-9.73,3.07,3.07,0,0,0,.57-2.6,3.63,3.63,0,0,0-1.79-2.34,3.07,3.07,0,0,0-2.54-.72,3.27,3.27,0,0,0-2.46,1.67A13.69,13.69,0,0,1,636,202.16a13.9,13.9,0,0,1,13.74-13.68,13.56,13.56,0,0,1,11.75,6.83,3.26,3.26,0,0,0,1.94,1.62,3.86,3.86,0,0,0,2.94-.25,3.42,3.42,0,0,0,1.84-2.11,3.9,3.9,0,0,0-.45-3.17A20.29,20.29,0,0,0,649.74,181Z" transform="translate(-12.08 -15.86)"/><path class="cls-2" d="M705.71,215.67H689.18v-9.81h12.41a3.7,3.7,0,0,0,0-7.4H689.18v-10h16.53a3.7,3.7,0,0,0,0-7.4H685.48a3.66,3.66,0,0,0-3.69,3.7v34.65a3.66,3.66,0,0,0,3.69,3.7h20.23a3.7,3.7,0,0,0,0-7.4Z" transform="translate(-12.08 -15.86)"/></svg>