<svg xmlns="http://www.w3.org/2000/svg" viewBox="0 0 697.21 167.58"><defs><style>.a{fill:#003e52;}.b{fill:#3fbeac;}</style></defs><title>kinobi-logo</title><path class="a" d="M254.88,92.87l28.63-30.81a8.17,8.17,0,0,0,1.66-6.2A7.85,7.85,0,0,0,282,50.59a8.19,8.19,0,0,0-6.19-1.66A7.88,7.88,0,0,0,270.6,52L237.11,87.82V56.41a8.21,8.21,0,1,0-16.43,0V136.1a8.21,8.21,0,1,0,16.43,0V111.49l6.33-6.63,27.82,36.54a8.2,8.2,0,0,0,6.31,3,8.41,8.41,0,0,0,5.12-1.81l0,0a8.26,8.26,0,0,0,3.06-5.69,7.92,7.92,0,0,0-1.86-5.87Z" transform="translate(-11.15 -12.26)"/><path class="a" d="M325.11,48.13a8.22,8.22,0,0,0-8.28,8.15v79.55a8.21,8.21,0,1,0,16.43,0V56.28A8.16,8.16,0,0,0,325.11,48.13Z" transform="translate(-11.15 -12.26)"/><path class="a" d="M436,56a8.21,8.21,0,1,0-16.43,0v54.65l-39.81-59.1a8.1,8.1,0,0,0-5.16-3.66,8.21,8.21,0,0,0-6.29,1.16,8.46,8.46,0,0,0-3.8,8V136.1a8.21,8.21,0,0,0,16.43,0V83l40,57.44a8.37,8.37,0,0,0,6.94,3.78,7.56,7.56,0,0,0,4.52-1.36,8.08,8.08,0,0,0,3.62-8Z" transform="translate(-11.15 -12.26)"/><path class="a" d="M513.58,48.53a47.32,47.32,0,0,0-47.27,47.27c0,26.5,21.2,48.06,47.27,48.06s47.27-21.56,47.27-48.06A47.32,47.32,0,0,0,513.58,48.53Zm31.23,47.27c0,17.59-14,31.89-31.23,31.89s-31.1-14.31-31.1-31.89a31.17,31.17,0,0,1,62.34,0Z" transform="translate(-11.15 -12.26)"/><path class="a" d="M648,92.63a28.77,28.77,0,0,0,5-15.8c0-14.85-12-27.16-27.38-28H600.2a8.46,8.46,0,0,0-8.37,8.28v78.76a8.22,8.22,0,0,0,8.41,8.28h35a28,28,0,0,0,26.19-27.62v0A28.35,28.35,0,0,0,648,92.63Zm-23.44-4.2H608.39V65.35h16.22a11.71,11.71,0,0,1,12,11.32A11.91,11.91,0,0,1,624.61,88.44ZM608.39,105h25.14c6,.11,11.51,5.58,11.51,11.48s-5.06,11.08-10.82,11.08H608.39Z" transform="translate(-11.15 -12.26)"/><path class="a" d="M700.21,48.13a8.22,8.22,0,0,0-8.28,8.15v79.55a8.21,8.21,0,1,0,16.43,0V56.28A8.16,8.16,0,0,0,700.21,48.13Z" transform="translate(-11.15 -12.26)"/><path class="b" d="M38.16,12.26a27,27,0,0,0-8.67,52.59V166a8.71,8.71,0,0,0,17.43,0V64.82a27,27,0,0,0-8.76-52.56Zm13.07,27A13.07,13.07,0,1,1,38.16,26.2,13.07,13.07,0,0,1,51.23,39.27Z" transform="translate(-11.15 -12.26)"/><path class="b" d="M150,133.72a27,27,0,0,0-31-5.16L83.73,93.3l61.09-61.09A8.71,8.71,0,0,0,132.49,19.9L129,23.4h0L65.41,87l-.17.16a8.71,8.71,0,0,0,0,12.32l41.41,41.41A27,27,0,1,0,150,133.72Zm-9.86,28.34a13.07,13.07,0,1,1,0-18.48A13.07,13.07,0,0,1,140.11,162.07Z" transform="translate(-11.15 -12.26)"/></svg>